<svg width="24" height="25" viewBox="0 0 24 25" fill="none" xmlns="http://www.w3.org/2000/svg">
<path d="M7.61708 5.0376C6.55947 5.0376 5.63661 5.78468 5.41396 6.81887L3.79677 14.3189C3.50087 15.7047 4.58486 17.0377 5.9999 17.0377H10.3124L10.1718 17.6002C10.0194 17.7174 9.92275 17.7672 9.70302 18.069C9.35146 18.5495 8.9999 19.2936 8.9999 20.2956C8.9999 21.3649 9.96669 22.2878 11.1796 22.2878H11.4843L11.7186 22.0768L16.8046 17.0377H20.2499V5.0376H7.61708ZM7.61708 6.53761H15.7499V15.983L10.9452 20.7175C10.6288 20.6559 10.4999 20.527 10.4999 20.2956C10.4999 19.6188 10.705 19.1999 10.8983 18.9362C11.0917 18.6725 11.2265 18.6081 11.2265 18.6081L11.4843 18.4674L11.578 18.1627L12.0233 16.4752L12.2577 15.5377H5.9999C5.50478 15.5377 5.17079 15.107 5.27333 14.6236L6.86708 7.12356C6.94325 6.77199 7.25966 6.53761 7.61708 6.53761ZM17.2499 6.53761H18.7499V15.5377H17.2499V6.53761Z" fill="white"/>
</svg>
