<svg width="24" height="24" viewBox="0 0 24 24" fill="none" xmlns="http://www.w3.org/2000/svg">
<path d="M12.5156 2.25L12.2812 2.46094L7.19531 7.49997H3.75V19.4999H16.3828C17.4404 19.4999 18.3633 18.7528 18.5859 17.7187L20.2031 10.2187C20.499 8.83297 19.415 7.49997 18 7.49997H13.6875L13.8281 6.93747C13.9805 6.82029 14.0771 6.77048 14.2969 6.46873C14.6484 5.98826 15 5.24412 15 4.24218C15 3.17285 14.0332 2.25 12.8203 2.25H12.5156ZM13.0547 3.8203C13.3711 3.88183 13.5 4.01073 13.5 4.24218C13.5 4.91893 13.2949 5.33787 13.1016 5.60154C12.9082 5.86521 12.7734 5.92967 12.7734 5.92967L12.5156 6.07029L12.4219 6.37498L11.9766 8.06247L11.7422 8.99996H18C18.4951 8.99996 18.8291 9.43062 18.7266 9.91402L17.1328 17.414C17.0566 17.7655 16.7402 17.9999 16.3828 17.9999H8.25V8.55465L13.0547 3.8203ZM5.25 8.99996H6.75V17.9999H5.25V8.99996Z" fill="white"/>
</svg>
